<!-- Generated by IcoMoon.io -->
<svg version="1.1" xmlns="http://www.w3.org/2000/svg" width="1056" height="1024" viewBox="0 0 1056 1024">
<g id="icomoon-ignore">
</g>
<path fill="#fff" d="M587.414 231.681v57.173c-111.786 8.96-175.36 80.64-175.36 198.826v194.989h-165.973c-97.707 0-146.347-48.64-146.347-146.349v-304.639c0-97.707 48.64-146.347 146.347-146.347h194.988c97.706 0 146.346 48.64 146.346 146.347z"></path>
<path fill="#fff" d="M806.717 341.334h-194.989c-97.706 0-146.346 48.64-146.346 146.346v304.64c0 97.709 48.64 146.349 146.346 146.349h194.989c97.706 0 146.346-48.64 146.346-146.349v-304.64c0-97.706-48.64-146.346-146.346-146.346zM787.942 672h-37.546v37.549c0 17.491-14.509 32-32 32-17.494 0-32-14.509-32-32v-37.549h-37.549c-17.491 0-32-14.506-32-32 0-17.491 14.509-32 32-32h37.549v-37.546c0-17.494 14.506-32 32-32 17.491 0 32 14.506 32 32v37.546h37.546c17.494 0 32 14.509 32 32 0 17.494-14.506 32-32 32z"></path>
</svg>
