<!-- Generated by IcoMoon.io -->
<svg version="1.1" xmlns="http://www.w3.org/2000/svg" width="1056" height="1024" viewBox="0 0 1056 1024">
<g id="icomoon-ignore">
</g>
<path fill="#ffcc01" d="M697.066 85.334h-341.334c-149.333 0-213.333 85.333-213.333 213.333v426.667c0 128 64 213.334 213.333 213.334h341.334c149.334 0 213.334-85.334 213.334-213.334v-426.667c0-128-64-213.333-213.334-213.333zM463.68 702.72c12.371 12.374 12.371 32.854 0 45.229-6.4 6.4-14.509 9.386-22.614 9.386s-16.214-2.986-22.614-9.386l-85.331-85.334c-12.374-12.374-12.374-32.854 0-45.226l85.331-85.334c12.374-12.374 32.854-12.374 45.229 0 12.371 12.374 12.371 32.854 0 45.226l-62.72 62.72 62.72 62.72zM719.68 662.614l-85.334 85.334c-6.4 6.4-14.506 9.386-22.614 9.386-8.106 0-16.211-2.986-22.611-9.386-12.374-12.374-12.374-32.854 0-45.229l62.72-62.72-62.72-62.72c-12.374-12.371-12.374-32.851 0-45.226 12.371-12.374 32.851-12.374 45.226 0l85.334 85.334c12.371 12.371 12.371 32.851 0 45.226zM803.731 394.669h-85.331c-64.854 0-117.334-52.48-117.334-117.335v-85.333c0-17.493 14.506-32 32-32s32 14.507 32 32v85.333c0 29.44 23.894 53.335 53.334 53.335h85.331c17.494 0 32 14.506 32 32 0 17.491-14.506 32-32 32z"></path>
</svg>
