<!-- Generated by IcoMoon.io -->
<svg version="1.1" xmlns="http://www.w3.org/2000/svg" width="1286" height="1024" viewBox="0 0 1286 1024">
<g id="icomoon-ignore">
</g>
<path fill="#fff" d="M1154.104 509.858h128.299v127.617h-128.299v-127.617z"></path>
<path fill="#fff" d="M1154.104 382.242h128.299v127.616h-128.299v-127.616z"></path>
<path fill="#fff" d="M1154.104 382.242h128.299c0-70.429-57.222-127.615-127.696-127.615h-0.603v127.615z"></path>
<path fill="#fff" d="M1025.81 255.229h128.299v127.615h-128.299v-127.615z"></path>
<path fill="#fff" d="M897.506 382.242h128.299v127.616h-128.299v-127.616z"></path>
<path fill="#fff" d="M897.506 382.242h128.299v-127.013h-0.603c-70.474 0-127.696 56.584-127.696 127.013z"></path>
<path fill="#fff" d="M641.501 382.242h128.299v127.616h-128.299v-127.616z"></path>
<path fill="#fff" d="M769.211 382.242h128.299v127.616h-128.299v-127.616z"></path>
<path fill="#fff" d="M513.206 382.242h128.299v127.616h-128.299v-127.616z"></path>
<path fill="#fff" d="M513.206 509.858h128.299v127.617h-128.299v-127.617z"></path>
<path fill="#fff" d="M641.501 636.872h128.299v127.612h-128.299v-127.612z"></path>
<path fill="#fff" d="M769.805 764.484h0.603c70.478 0 127.701-57.185 127.701-127.612h-128.304v127.612z"></path>
<path fill="#fff" d="M513.206 127.617h128.299v127.615h-128.299v-127.615z"></path>
<path fill="#fff" d="M513.206 127.615h128.299c0-70.429-57.222-127.615-127.696-127.615h-0.603v127.615z"></path>
<path fill="#fff" d="M384.902 0h128.299v127.615h-128.299v-127.615z"></path>
<path fill="#fff" d="M256.605 0h128.301v127.615h-128.301v-127.615z"></path>
<path fill="#fff" d="M128.304 127.615h128.301v-127.615h-0.603c-70.475 0-127.698 57.186-127.698 127.615z"></path>
<path fill="#fff" d="M128.304 127.617h128.301v127.615h-128.301v-127.615z"></path>
<path fill="#fff" d="M128.304 509.858h128.301v127.617h-128.301v-127.617z"></path>
<path fill="#fff" d="M128.304 382.242h128.301v127.616h-128.301v-127.616z"></path>
<path fill="#fff" d="M513.206 255.229h128.299v127.615h-128.299v-127.615z"></path>
<path fill="#fff" d="M128.304 255.229h128.301v127.615h-128.301v-127.615z"></path>
<path fill="#f2cb12" d="M0 382.242h128.301v127.616h-128.301v-127.616z"></path>
<path fill="#fff" d="M1025.81 636.872h128.299v127.612h-128.299v-127.612z"></path>
<path fill="#fff" d="M256.605 636.872h128.301v127.612h-128.301v-127.612z"></path>
<path fill="#fff" d="M897.506 764.488h128.299v127.612h-128.299v-127.612z"></path>
<path fill="#fff" d="M641.501 892.1h128.299v127.617h-128.299v-127.617z"></path>
<path fill="#fff" d="M769.211 892.1h128.299v127.617h-128.299v-127.617z"></path>
<path fill="#fff" d="M513.206 892.1h128.299v127.617h-128.299v-127.617z"></path>
<path fill="#fff" d="M384.902 764.488h128.299v127.612h-128.299v-127.612z"></path>
</svg>
