<!-- Generated by IcoMoon.io -->
<svg version="1.1" xmlns="http://www.w3.org/2000/svg" width="1024" height="1024" viewBox="0 0 1024 1024">
<g id="icomoon-ignore">
</g>
<path fill="#191a1d" d="M864 0h-704c-88.365 0-160 71.635-160 160v704c0 88.365 71.635 160 160 160h704c88.365 0 160-71.635 160-160v-704c0-88.365-71.635-160-160-160z"></path>
<path fill="#fff" d="M768 512c0-140.8-115.2-256-256-256s-256 115.2-256 256c0 128 92.8 233.6 214.4 252.8v-179.2h-64v-73.6h64v-57.6c0-64 38.4-99.2 96-99.2 28.8 0 57.6 6.4 57.6 6.4v64h-32c-32 0-41.6 19.2-41.6 38.4v48h70.4l-12.8 73.6h-60.8v182.4c128-19.2 220.8-128 220.8-256z"></path>
</svg>
