<!-- Generated by IcoMoon.io -->
<svg version="1.1" xmlns="http://www.w3.org/2000/svg" width="1024" height="1024" viewBox="0 0 1024 1024">
<g id="icomoon-ignore">
</g>
<path fill="#191a1d" d="M864 0h-704c-88.365 0-160 71.635-160 160v704c0 88.365 71.635 160 160 160h704c88.365 0 160-71.635 160-160v-704c0-88.365-71.635-160-160-160z"></path>
<path fill="#fff" d="M512 294.398c70.4 0 80 0 108.8 0 25.6 0 38.4 6.4 48 9.6 12.8 6.4 22.4 9.6 32 19.202 9.6 9.6 16 19.2 19.2 32 3.2 9.6 6.4 22.4 9.6 48 0 28.8 0 35.2 0 108.8s0 80 0 108.8c0 25.6-6.4 38.4-9.6 48-6.4 12.8-9.6 22.4-19.2 32s-19.2 16-32 19.2c-9.6 3.2-22.4 6.4-48 9.6-28.8 0-35.2 0-108.8 0s-80 0-108.8 0c-25.6 0-38.4-6.4-48-9.6-12.8-6.4-22.4-9.6-32-19.2-9.602-9.6-16.002-19.2-19.202-32-3.2-9.6-6.4-22.4-9.6-48 0-28.8 0-35.2 0-108.8s0-80 0-108.8c0-25.6 6.4-38.4 9.6-48 6.4-12.8 9.6-22.4 19.202-32 9.6-9.602 19.2-16.002 32-19.202 9.6-3.2 22.4-6.4 48-9.6 28.8 0 38.4 0 108.8 0zM512 246.398c-73.6 0-80 0-108.8 0s-48 6.4-64 12.8c-16 6.4-32.002 16-48.002 32s-22.4 28.8-32 48.002c-6.4 16-9.6 35.2-12.8 64 0 28.8 0 38.4 0 108.8 0 73.6 0 80 0 108.8s6.4 48 12.8 64c6.4 16 16 32 32 48s28.8 22.4 48.002 32c16 6.4 35.2 9.597 64 12.797 28.8 0 38.4 0 108.8 0s80 0 108.8 0c28.8 0 48-6.397 64-12.797s32-16 48-32c16-16 22.4-28.8 32-48 6.4-16 9.597-35.2 12.797-64 0-28.8 0-38.4 0-108.8s0-80 0-108.8c0-28.8-6.397-48-12.797-64s-16-32.002-32-48.002c-16-16-28.8-22.4-48-32-16-6.4-35.2-9.6-64-12.8-28.8 0-35.2 0-108.8 0z"></path>
<path fill="#fff" d="M512 374.4c-76.8 0-137.6 60.8-137.6 137.6s60.8 137.6 137.6 137.6c76.8 0 137.6-60.8 137.6-137.6s-60.8-137.6-137.6-137.6zM512 601.6c-48 0-89.6-38.4-89.6-89.6 0-48 38.4-89.6 89.6-89.6 48 0 89.6 38.4 89.6 89.6 0 48-41.6 89.6-89.6 89.6z"></path>
<path fill="#fff" d="M652.8 403.2c17.67 0 32-14.33 32-32 0-17.674-14.33-32-32-32-17.674 0-32 14.326-32 32 0 17.67 14.326 32 32 32z"></path>
</svg>
