<!-- Generated by IcoMoon.io -->
<svg version="1.1" xmlns="http://www.w3.org/2000/svg" width="1024" height="1024" viewBox="0 0 1024 1024">
<g id="icomoon-ignore">
</g>
<path fill="#f0db4f" d="M0 0h1024v1024h-1024v-1024z"></path>
<path fill="#323330" d="M940.193 779.778c-7.495-46.721-37.961-85.95-128.193-122.548-31.344-14.407-66.289-24.722-76.705-48.474-3.699-13.822-4.184-21.609-1.848-29.981 6.717-27.158 39.129-35.625 64.827-27.838 16.547 5.549 32.219 18.3 41.662 38.644 44.19-28.618 44.093-28.423 74.949-48.084-11.291-17.523-17.325-25.602-24.725-33.095-26.573-29.689-62.783-44.971-120.698-43.803-10.025 1.265-20.148 2.626-30.176 3.894-28.908 7.3-56.457 22.484-72.614 42.828-48.474 54.996-34.653 151.264 24.335 190.881 58.112 43.608 143.477 53.536 154.378 94.32 10.611 49.935-36.696 66.092-83.71 60.35-34.653-7.202-53.926-24.82-74.757-56.844-38.349 22.192-38.349 22.192-77.773 44.873 9.345 20.441 19.176 29.686 34.848 47.404 74.172 75.242 259.796 71.543 293.086-42.342 1.363-3.896 10.318-29.981 3.113-70.183zM556.681 470.633h-95.781c0 82.737-0.388 164.891-0.388 247.628 0 52.66 2.723 100.94-5.842 115.736-14.017 29.104-50.325 25.502-66.872 19.856-16.84-8.275-25.405-20.051-35.333-36.696-2.726-4.769-4.769-8.468-5.452-8.76-25.99 15.865-51.883 31.829-77.87 47.696 12.946 26.573 32.024 49.642 56.457 64.631 36.501 21.899 85.56 28.616 136.858 16.837 33.387-9.733 62.198-29.881 77.285-60.543 21.804-40.199 17.132-88.869 16.937-142.697 0.488-87.801 0-175.599 0-263.69z"></path>
</svg>
