<!-- Generated by IcoMoon.io -->
<svg version="1.1" xmlns="http://www.w3.org/2000/svg" width="1038" height="1024" viewBox="0 0 1038 1024">
<g id="icomoon-ignore">
</g>
<path fill="#f2cb12" d="M826.736 271.36c-44.373-89.6-130.133-155.733-229.547-177.493-104.107-23.040-210.773 1.707-292.267 67.413-81.92 65.28-128.427 162.987-128.427 267.52 0 110.507 66.133 226.133 165.973 293.12v35.413c-0.427 11.947-0.853 30.293 13.653 45.227 14.933 15.36 37.12 17.067 54.613 17.067h218.88c23.040 0 40.533-6.4 52.48-18.347 16.213-16.64 15.787-37.973 15.36-49.493v-29.867c132.267-89.173 215.467-277.333 129.28-450.56z"></path>
<path fill="#f2cb12" d="M658.204 938.667c-2.56 0-5.547-0.427-8.107-1.28-85.76-24.32-175.787-24.32-261.547 0-15.787 4.267-32.427-4.693-36.693-20.48-4.693-15.787 4.693-32.427 20.48-36.693 96.427-27.307 197.973-27.307 294.4 0 15.787 4.693 25.173 20.907 20.48 36.693-4.267 13.227-16.213 21.76-29.013 21.76z"></path>
</svg>
