<!-- Generated by IcoMoon.io -->
<svg version="1.1" xmlns="http://www.w3.org/2000/svg" width="1751" height="1024" viewBox="0 0 1751 1024">
<g id="icomoon-ignore">
</g>
<path fill="#f2cb12" d="M941.908 348.741h-65.779v65.429h65.779v-65.429z"></path>
<path fill="#f2cb12" d="M941.908 283.314h-65.779v65.427h65.779v-65.427z"></path>
<path fill="#f2cb12" d="M941.908 283.314h-65.779c0-36.109 29.338-65.427 65.47-65.427h0.309v65.427z"></path>
<path fill="#f2cb12" d="M1007.682 218.193h-65.779v65.429h65.779v-65.429z"></path>
<path fill="#f2cb12" d="M1073.464 283.314h-65.779v65.427h65.779v-65.427z"></path>
<path fill="#f2cb12" d="M1073.464 283.313h-65.779v-65.12h0.309c36.132 0 65.47 29.011 65.47 65.12z"></path>
<path fill="#f2cb12" d="M1204.715 283.314h-65.779v65.427h65.779v-65.427z"></path>
<path fill="#f2cb12" d="M1139.246 283.314h-65.779v65.427h65.779v-65.427z"></path>
<path fill="#f2cb12" d="M1270.488 283.314h-65.779v65.427h65.779v-65.427z"></path>
<path fill="#f2cb12" d="M1270.488 348.741h-65.779v65.429h65.779v-65.429z"></path>
<path fill="#f2cb12" d="M1204.715 413.86h-65.779v65.427h65.779v-65.427z"></path>
<path fill="#f2cb12" d="M1138.932 479.287h-0.309c-36.132 0-65.47-29.319-65.47-65.427h65.779v65.427z"></path>
<path fill="#f2cb12" d="M1270.488 152.766h-65.779v65.427h65.779v-65.427z"></path>
<path fill="#f2cb12" d="M1270.488 152.766h-65.779c0-36.109 29.338-65.427 65.47-65.427h0.309v65.427z"></path>
<path fill="#f2cb12" d="M1336.27 87.339h-65.779v65.427h65.779v-65.427z"></path>
<path fill="#f2cb12" d="M1402.053 87.339h-65.779v65.427h65.779v-65.427z"></path>
<path fill="#f2cb12" d="M1467.828 152.766h-65.78v-65.427h0.309c36.132 0 65.472 29.319 65.472 65.427z"></path>
<path fill="#f2cb12" d="M1467.828 152.766h-65.78v65.427h65.78v-65.427z"></path>
<path fill="#f2cb12" d="M1467.828 348.741h-65.78v65.429h65.78v-65.429z"></path>
<path fill="#f2cb12" d="M1467.828 283.314h-65.78v65.427h65.78v-65.427z"></path>
<path fill="#f2cb12" d="M1270.488 218.193h-65.779v65.429h65.779v-65.429z"></path>
<path fill="#f2cb12" d="M1467.828 218.193h-65.78v65.429h65.78v-65.429z"></path>
<path fill="#fff" d="M1533.61 283.314h-65.779v65.427h65.779v-65.427z"></path>
<path fill="#f2cb12" d="M1007.682 413.86h-65.779v65.427h65.779v-65.427z"></path>
<path fill="#f2cb12" d="M1402.053 413.86h-65.779v65.427h65.779v-65.427z"></path>
<path fill="#f2cb12" d="M1073.464 479.287h-65.779v65.427h65.779v-65.427z"></path>
<path fill="#f2cb12" d="M1204.715 544.713h-65.779v65.427h65.779v-65.427z"></path>
<path fill="#f2cb12" d="M1139.246 544.713h-65.779v65.427h65.779v-65.427z"></path>
<path fill="#f2cb12" d="M1270.488 544.713h-65.779v65.427h65.779v-65.427z"></path>
<path fill="#f2cb12" d="M1336.27 479.287h-65.779v65.427h65.779v-65.427z"></path>
<path fill="#fff" d="M1466.9 544.713h-65.779v65.427h65.779v-65.427z"></path>
<path fill="#fff" d="M1466.9 675.259h-65.779v65.427h65.779v-65.427z"></path>
<path fill="#fff" d="M1466.9 740.378h-65.779v65.429h65.779v-65.429z"></path>
<path fill="#fff" d="M1466.9 805.807h-65.779v65.427h65.779v-65.427z"></path>
<path fill="#fff" d="M1466.9 870.924h-65.779v65.427h65.779v-65.427z"></path>
<path fill="#fff" d="M284.73 675.259h-65.779v65.427h65.779v-65.427z"></path>
<path fill="#fff" d="M218.956 675.259h-65.779v65.427h65.779v-65.427z"></path>
<path fill="#fff" d="M153.174 740.378h-65.779c0-36.108 29.338-65.427 65.779-65.427v65.427z"></path>
<path fill="#fff" d="M153.174 740.378h-65.779v65.429h65.779v-65.429z"></path>
<path fill="#fff" d="M153.174 805.807h-65.779v65.427h65.779v-65.427z"></path>
<path fill="#fff" d="M284.73 740.378h-65.779v65.429h65.779v-65.429z"></path>
<path fill="#fff" d="M284.73 544.713h-65.779v65.427h65.779v-65.427z"></path>
<path fill="#fff" d="M284.73 609.83h-65.779v65.429h65.779v-65.429z"></path>
<path fill="#fff" d="M284.73 805.807h-65.779v65.427h65.779v-65.427z"></path>
<path fill="#fff" d="M284.73 870.924h-65.779v65.427h65.779v-65.427z"></path>
<path fill="#fff" d="M218.956 870.924h-65.779v65.427h65.779v-65.427z"></path>
<path fill="#fff" d="M153.174 936.351c-36.441 0-65.779-29.319-65.779-65.427h65.779v65.427z"></path>
<path fill="#fff" d="M547.538 675.259h-65.78v65.427h65.78v-65.427z"></path>
<path fill="#fff" d="M416.296 675.259h-65.779v65.427h65.779v-65.427z"></path>
<path fill="#fff" d="M416.296 740.378h-65.779v65.429h65.779v-65.429z"></path>
<path fill="#fff" d="M416.296 805.807h-65.779v65.427h65.779v-65.427z"></path>
<path fill="#fff" d="M547.538 740.378h-65.78v65.429h65.78v-65.429z"></path>
<path fill="#fff" d="M547.538 805.807h-65.78v65.427h65.78v-65.427z"></path>
<path fill="#fff" d="M481.757 936.351v-65.427h65.78c0 36.108-29.339 65.427-65.78 65.427z"></path>
<path fill="#fff" d="M482.069 870.924h-65.779v65.427h65.779v-65.427z"></path>
<path fill="#fff" d="M416.296 936.351c-36.441 0-65.779-29.319-65.779-65.427h65.779v65.427z"></path>
<path fill="#fff" d="M810.658 675.259h-65.779v65.427h65.779v-65.427z"></path>
<path fill="#fff" d="M744.876 675.259h-65.779v65.427h65.779v-65.427z"></path>
<path fill="#fff" d="M679.102 740.378h-65.779c0-36.108 29.338-65.427 65.779-65.427v65.427z"></path>
<path fill="#fff" d="M679.102 740.378h-65.779v65.429h65.779v-65.429z"></path>
<path fill="#fff" d="M679.102 805.807h-65.779v65.427h65.779v-65.427z"></path>
<path fill="#fff" d="M810.658 870.924h-65.779v65.427h65.779v-65.427z"></path>
<path fill="#fff" d="M744.876 870.924h-65.779v65.427h65.779v-65.427z"></path>
<path fill="#fff" d="M679.102 936.351c-36.441 0-65.779-29.319-65.779-65.427h65.779v65.427z"></path>
<path fill="#fff" d="M941.908 675.259h-65.779v65.427h65.779v-65.427z"></path>
<path fill="#fff" d="M941.908 740.378h-65.779v65.429h65.779v-65.429z"></path>
<path fill="#fff" d="M1007.682 740.378h-65.779v65.429h65.779v-65.429z"></path>
<path fill="#fff" d="M1073.464 805.807h-65.779v-65.429c36.132 0 65.779 29.319 65.779 65.429z"></path>
<path fill="#fff" d="M1073.464 805.807h-65.779v65.427h65.779v-65.427z"></path>
<path fill="#fff" d="M1073.464 870.924h-65.779v65.427h65.779v-65.427z"></path>
<path fill="#fff" d="M1073.464 675.259h-65.779v65.427h65.779v-65.427z"></path>
<path fill="#fff" d="M941.908 544.713h-65.779v65.427h65.779v-65.427z"></path>
<path fill="#fff" d="M941.908 609.83h-65.779v65.429h65.779v-65.429z"></path>
<path fill="#f2cb12" d="M1270.488 870.924h-65.779v65.427h65.779v-65.427z"></path>
<path fill="#f2cb12" d="M1204.715 870.924h-65.779v65.427h65.779v-65.427z"></path>
<path fill="#f2cb12" d="M1335.344 870.924h-65.779v65.427h65.779v-65.427z"></path>
<path fill="#fff" d="M941.908 805.807h-65.779v65.427h65.779v-65.427z"></path>
<path fill="#fff" d="M941.908 870.924h-65.779v65.427h65.779v-65.427z"></path>
<path fill="#fff" d="M1597.537 544.713h-65.779v65.427h65.779v-65.427z"></path>
<path fill="#fff" d="M1597.537 609.83h-65.779v65.429h65.779v-65.429z"></path>
<path fill="#fff" d="M1663.306 609.83h-65.774v65.429h65.774v-65.429z"></path>
<path fill="#fff" d="M1597.537 740.378h-65.779v65.429h65.779v-65.429z"></path>
<path fill="#fff" d="M1597.537 675.259h-65.779v65.427h65.779v-65.427z"></path>
<path fill="#fff" d="M1597.537 805.807h-65.779v65.427h65.779v-65.427z"></path>
<path fill="#fff" d="M1597.537 870.924h-65.779v65.427h65.779v-65.427z"></path>
<path fill="#fff" d="M1597.532 936.351v-65.427h65.774c0 36.108-29.333 65.427-65.774 65.427z"></path>
</svg>
