<!-- Generated by IcoMoon.io -->
<svg version="1.1" xmlns="http://www.w3.org/2000/svg" width="1024" height="1024" viewBox="0 0 1024 1024">
<g id="icomoon-ignore">
</g>
<path fill="#ffcc01" d="M747.949 331.52c-2.986-0.429-5.974-0.429-8.96 0-66.134-2.134-118.614-56.321-118.614-122.881 0-67.84 55.040-123.307 123.309-123.307 67.84 0 123.306 55.040 123.306 123.307-0.426 66.56-52.906 120.747-119.040 122.881z"></path>
<path fill="#ffcc01" d="M887.040 627.2c-47.789 32-114.774 43.949-176.64 35.84 16.211-34.986 24.746-73.811 25.171-114.771 0-42.666-9.386-83.2-27.306-118.614 63.146-8.534 130.134 3.414 178.346 35.414 67.414 44.371 67.414 117.331 0.429 162.131z"></path>
<path fill="#ffcc01" d="M274.77 331.52c2.987-0.429 5.973-0.429 8.96 0 66.133-2.134 118.613-56.321 118.613-122.881 0-68.267-55.040-123.307-123.306-123.307-67.84 0-122.88 55.040-122.88 123.307 0 66.56 52.48 120.747 118.613 122.881z"></path>
<path fill="#ffcc01" d="M279.464 548.269c0 41.386 8.96 80.64 25.173 116.054-60.16 6.4-122.88-6.4-168.96-36.694-67.413-44.8-67.413-117.76 0-162.56 45.653-30.72 110.080-43.094 170.667-36.266-17.493 35.84-26.88 76.371-26.88 119.466z"></path>
<path fill="#ffcc01" d="M517.117 677.12c-3.414-0.426-7.254-0.426-11.094 0-78.506-2.56-141.226-66.986-141.226-146.346 0.426-81.069 65.706-146.774 147.2-146.774 81.066 0 146.774 65.706 146.774 146.774-0.429 79.36-62.72 143.786-141.654 146.346z"></path>
<path fill="#ffcc01" d="M378.454 765.44c-64.428 43.094-64.428 113.92 0 156.589 73.386 49.066 193.706 49.066 267.091 0 64.429-43.094 64.429-113.92 0-156.589-72.96-49.066-193.28-49.066-267.091 0z"></path>
</svg>
