<!-- Generated by IcoMoon.io -->
<svg version="1.1" xmlns="http://www.w3.org/2000/svg" width="1024" height="1024" viewBox="0 0 1024 1024">
<g id="icomoon-ignore">
</g>
<path fill="#f2cb12" d="M512.003 85.332c-111.789 0-202.667 90.88-202.667 202.667 0 109.652 85.758 198.401 197.547 202.241 3.411-0.429 6.826-0.429 9.386 0 0.854 0 1.28 0 2.134 0 0.426 0 0.426 0 0.851 0 109.229-3.84 194.989-92.589 195.414-202.241 0-111.787-90.88-202.667-202.666-202.667z"></path>
<path fill="#f2cb12" d="M728.746 603.734c-119.040-79.36-313.174-79.36-433.067 0-54.187 36.266-84.053 85.334-84.053 137.814s29.867 101.12 83.627 136.96c59.734 40.106 138.24 60.16 216.745 60.16 78.509 0 157.014-20.054 216.749-60.16 53.76-36.269 83.626-84.909 83.626-137.814-0.426-52.48-29.866-101.12-83.626-136.96z"></path>
</svg>
