<!-- Generated by IcoMoon.io -->
<svg version="1.1" xmlns="http://www.w3.org/2000/svg" width="1024" height="1024" viewBox="0 0 1024 1024">
<g id="icomoon-ignore">
</g>
<path fill="#222" d="M0 0h1024v1024h-1024v-1024z"></path>
<path fill="#00d8ff" d="M511.208 597.009c47.292 0 85.631-38.339 85.631-85.631 0-47.294-38.339-85.631-85.631-85.631s-85.631 38.337-85.631 85.631c0 47.292 38.339 85.631 85.631 85.631z"></path>
<path fill="none" stroke="#00d8ff" stroke-linejoin="miter" stroke-linecap="butt" stroke-miterlimit="10" stroke-width="24.381" d="M511.208 337.286c114.949 0 221.747 16.499 302.256 44.203 97.004 33.39 156.657 84.017 156.657 129.86 0 47.767-63.217 101.561-167.383 136.058-78.755 26.090-182.411 39.729-291.53 39.729-111.889 0-217.81-12.79-297.47-40.012-100.77-34.441-161.47-88.915-161.47-135.775 0-45.475 56.964-95.705 152.612-129.041 80.821-28.158 190.25-45.022 306.327-45.022z"></path>
<path fill="none" stroke="#00d8ff" stroke-linejoin="miter" stroke-linecap="butt" stroke-miterlimit="10" stroke-width="24.381" d="M359.66 424.838c57.417-99.582 125.079-183.854 189.316-239.744 77.395-67.35 151.055-93.724 190.759-70.83 41.372 23.855 56.398 105.496 34.241 213.001-16.755 81.271-56.71 177.854-111.241 272.399-55.891 96.922-119.901 182.296-183.259 237.705-80.169 70.095-157.706 95.451-198.285 72.048-39.392-22.723-54.447-97.148-35.572-196.674 15.96-84.158 56.030-187.363 114.042-287.905z"></path>
<path fill="none" stroke="#00d8ff" stroke-linejoin="miter" stroke-linecap="butt" stroke-miterlimit="10" stroke-width="24.381" d="M359.814 599.864c-57.588-99.496-96.809-200.18-113.167-283.746-19.694-100.685-5.772-177.684 33.902-200.634 41.345-23.94 119.562 3.82 201.626 76.688 62.057 55.097 125.757 137.953 180.429 232.415 56.059 96.836 98.082 194.918 114.41 277.463 20.687 104.477 3.933 184.308-36.618 207.767-39.363 22.779-111.353-1.331-188.155-67.408-64.858-55.832-134.276-142.085-192.427-242.544z"></path>
</svg>
