<!-- Generated by IcoMoon.io -->
<svg version="1.1" xmlns="http://www.w3.org/2000/svg" width="1024" height="1024" viewBox="0 0 1024 1024">
<g id="icomoon-ignore">
</g>
<path fill="#191a1d" d="M864 0h-704c-88.365 0-160 71.635-160 160v704c0 88.365 71.635 160 160 160h704c88.365 0 160-71.635 160-160v-704c0-88.365-71.635-160-160-160z"></path>
<path fill="#fff" d="M259.197 502.666c137.439-59.878 229.087-99.357 274.943-118.429 130.928-54.458 158.131-63.917 175.866-64.234 3.898-0.066 12.618 0.902 18.269 5.485 4.768 3.869 6.080 9.098 6.71 12.768 0.627 3.667 1.408 12.029 0.787 18.56-7.094 74.547-37.795 255.456-53.414 338.95-6.608 35.331-19.622 47.178-32.221 48.336-27.376 2.518-48.166-18.093-74.685-35.475-41.494-27.2-64.934-44.134-105.213-70.675-46.547-30.675-16.371-47.533 10.157-75.085 6.941-7.21 127.571-116.931 129.904-126.886 0.294-1.245 0.563-5.885-2.192-8.336-2.758-2.448-6.826-1.61-9.763-0.944-4.16 0.944-70.448 44.758-198.861 131.44-18.816 12.922-35.859 19.216-51.126 18.886-16.835-0.365-49.215-9.52-73.287-17.344-29.525-9.597-52.991-14.672-50.947-30.97 1.064-8.49 12.755-17.174 35.073-26.048z"></path>
</svg>
