<svg xmlns="http://www.w3.org/2000/svg" aria-hidden="true" style="position:absolute;width:0;height:0;overflow:hidden">
<defs>
<symbol id="facebook" viewBox="0 0 32 32"><path fill="#191a1d" d="M27 0H5a5 5 0 0 0-5 5v22a5 5 0 0 0 5 5h22a5 5 0 0 0 5-5V5a5 5 0 0 0-5-5z" style="fill:var(--color1, #191a1d)"/><path fill="#fff" d="M24 16c0-4.4-3.6-8-8-8s-8 3.6-8 8c0 4 2.9 7.3 6.7 7.9v-5.6h-2V16h2v-1.8c0-2 1.2-3.1 3-3.1.9 0 1.8.2 1.8.2v2h-1c-1 0-1.3.6-1.3 1.2V16h2.2l-.4 2.3h-1.9V24c4-.6 6.9-4 6.9-8z" style="fill:var(--color2, #fff)"/></symbol>
<symbol id="telegram" viewBox="0 0 32 32"><path fill="#191a1d" d="M27 0H5a5 5 0 0 0-5 5v22a5 5 0 0 0 5 5h22a5 5 0 0 0 5-5V5a5 5 0 0 0-5-5z" style="fill:var(--color1, #191a1d)"/><path fill="#fff" d="M8.1 15.708c4.295-1.871 7.159-3.105 8.592-3.701 4.091-1.702 4.942-1.997 5.496-2.007.122-.002.394.028.571.171.149.121.19.284.21.399s.044.376.025.58c-.222 2.33-1.181 7.983-1.669 10.592-.206 1.104-.613 1.474-1.007 1.511-.855.079-1.505-.565-2.334-1.109-1.297-.85-2.029-1.379-3.288-2.209-1.455-.959-.512-1.485.317-2.346.217-.225 3.987-3.654 4.059-3.965.009-.039.018-.184-.069-.261s-.213-.05-.305-.03c-.13.03-2.201 1.399-6.214 4.107-.588.404-1.121.601-1.598.59-.526-.011-1.538-.297-2.29-.542-.923-.3-1.656-.459-1.592-.968.033-.265.399-.537 1.096-.814z" style="fill:var(--color2, #fff)"/></symbol>
<symbol id="instagram" viewBox="0 0 32 32"><path fill="#191a1d" d="M27 0H5a5 5 0 0 0-5 5v22a5 5 0 0 0 5 5h22a5 5 0 0 0 5-5V5a5 5 0 0 0-5-5z" style="fill:var(--color1, #191a1d)"/><path fill="#fff" d="M16 9.2h3.4c.8 0 1.2.2 1.5.3.4.2.7.3 1 .6s.5.6.6 1c.1.3.2.7.3 1.5v6.8c0 .8-.2 1.2-.3 1.5-.2.4-.3.7-.6 1s-.6.5-1 .6c-.3.1-.7.2-1.5.3h-6.8c-.8 0-1.2-.2-1.5-.3-.4-.2-.7-.3-1-.6s-.5-.6-.6-1c-.1-.3-.2-.7-.3-1.5v-6.8c0-.8.2-1.2.3-1.5.2-.4.3-.7.6-1s.6-.5 1-.6c.3-.1.7-.2 1.5-.3H16zm0-1.5h-3.4c-.9 0-1.5.2-2 .4s-1 .5-1.5 1-.7.9-1 1.5c-.2.5-.3 1.1-.4 2v6.8c0 .9.2 1.5.4 2s.5 1 1 1.5.9.7 1.5 1c.5.2 1.1.3 2 .4h6.8c.9 0 1.5-.2 2-.4s1-.5 1.5-1 .7-.9 1-1.5c.2-.5.3-1.1.4-2v-6.8c0-.9-.2-1.5-.4-2s-.5-1-1-1.5-.9-.7-1.5-1c-.5-.2-1.1-.3-2-.4H16z" style="fill:var(--color2, #fff)"/><path fill="#fff" d="M16 11.7c-2.4 0-4.3 1.9-4.3 4.3s1.9 4.3 4.3 4.3 4.3-1.9 4.3-4.3-1.9-4.3-4.3-4.3zm0 7.1c-1.5 0-2.8-1.2-2.8-2.8 0-1.5 1.2-2.8 2.8-2.8 1.5 0 2.8 1.2 2.8 2.8 0 1.5-1.3 2.8-2.8 2.8zM20.4 12.6a1 1 0 1 0 0-2 1 1 0 0 0 0 2z" style="fill:var(--color2, #fff)"/></symbol>
<symbol id="logo-duck" viewBox="0 0 54 32"><path fill="#f2cb12" d="M29.235 10.898h-2.042v2.045h2.042v-2.045z" style="fill:var(--color3, #f2cb12)"/><path fill="#f2cb12" d="M29.235 8.854h-2.042v2.045h2.042V8.854zM29.235 8.854h-2.042a2.04 2.04 0 0 1 2.032-2.045h.01v2.045zM31.277 6.819h-2.042v2.045h2.042V6.819zM33.319 8.854h-2.042v2.045h2.042V8.854zM33.319 8.854h-2.042V6.819h.01c1.121 0 2.032.907 2.032 2.035zM37.393 8.854h-2.042v2.045h2.042V8.854z" style="fill:var(--color3, #f2cb12)"/><path fill="#f2cb12" d="M35.361 8.854h-2.042v2.045h2.042V8.854zM39.434 8.854h-2.042v2.045h2.042V8.854z" style="fill:var(--color3, #f2cb12)"/><path fill="#f2cb12" d="M39.434 10.898h-2.042v2.045h2.042v-2.045z" style="fill:var(--color3, #f2cb12)"/><path fill="#f2cb12" d="M37.393 12.933h-2.042v2.045h2.042v-2.045zM35.351 14.978h-.01a2.04 2.04 0 0 1-2.032-2.045h2.042v2.045zM39.434 4.774h-2.042v2.045h2.042V4.774zM39.434 4.774h-2.042a2.04 2.04 0 0 1 2.032-2.045h.01v2.045zM41.476 2.729h-2.042v2.045h2.042V2.729zM43.518 2.729h-2.042v2.045h2.042V2.729z" style="fill:var(--color3, #f2cb12)"/><path fill="#f2cb12" d="M45.559 4.774h-2.042V2.729h.01a2.04 2.04 0 0 1 2.032 2.045zM45.559 4.774h-2.042v2.045h2.042V4.774zM45.559 10.898h-2.042v2.045h2.042v-2.045z" style="fill:var(--color3, #f2cb12)"/><path fill="#f2cb12" d="M45.559 8.854h-2.042v2.045h2.042V8.854zM39.434 6.819h-2.042v2.045h2.042V6.819z" style="fill:var(--color3, #f2cb12)"/><path fill="#f2cb12" d="M45.559 6.819h-2.042v2.045h2.042V6.819z" style="fill:var(--color3, #f2cb12)"/><path fill="#fff" d="M47.601 8.854h-2.042v2.045h2.042V8.854z" style="fill:var(--color2, #fff)"/><path fill="#f2cb12" d="M31.277 12.933h-2.042v2.045h2.042v-2.045zM43.518 12.933h-2.042v2.045h2.042v-2.045zM33.319 14.978h-2.042v2.045h2.042v-2.045zM37.393 17.022h-2.042v2.045h2.042v-2.045z" style="fill:var(--color3, #f2cb12)"/><path fill="#f2cb12" d="M35.361 17.022h-2.042v2.045h2.042v-2.045zM39.434 17.022h-2.042v2.045h2.042v-2.045zM41.476 14.978h-2.042v2.045h2.042v-2.045z" style="fill:var(--color3, #f2cb12)"/><path fill="#fff" d="M45.531 17.022h-2.042v2.045h2.042v-2.045zM45.531 21.102h-2.042v2.045h2.042v-2.045z" style="fill:var(--color2, #fff)"/><path fill="#fff" d="M45.531 23.137h-2.042v2.045h2.042v-2.045z" style="fill:var(--color2, #fff)"/><path fill="#fff" d="M45.531 25.181h-2.042v2.045h2.042v-2.045z" style="fill:var(--color2, #fff)"/><path fill="#fff" d="M45.531 27.216h-2.042v2.045h2.042v-2.045zM8.838 21.102H6.796v2.045h2.042v-2.045zM6.796 21.102H4.754v2.045h2.042v-2.045zM4.754 23.137H2.712c0-1.128.911-2.045 2.042-2.045v2.045zM4.754 23.137H2.712v2.045h2.042v-2.045z" style="fill:var(--color2, #fff)"/><path fill="#fff" d="M4.754 25.181H2.712v2.045h2.042v-2.045zM8.838 23.137H6.796v2.045h2.042v-2.045zM8.838 17.022H6.796v2.045h2.042v-2.045z" style="fill:var(--color2, #fff)"/><path fill="#fff" d="M8.838 19.057H6.796v2.045h2.042v-2.045zM8.838 25.181H6.796v2.045h2.042v-2.045z" style="fill:var(--color2, #fff)"/><path fill="#fff" d="M8.838 27.216H6.796v2.045h2.042v-2.045zM6.796 27.216H4.754v2.045h2.042v-2.045zM4.754 29.261a2.042 2.042 0 0 1-2.042-2.045h2.042v2.045zM16.995 21.102h-2.042v2.045h2.042v-2.045zM12.921 21.102h-2.042v2.045h2.042v-2.045z" style="fill:var(--color2, #fff)"/><path fill="#fff" d="M12.921 23.137h-2.042v2.045h2.042v-2.045z" style="fill:var(--color2, #fff)"/><path fill="#fff" d="M12.921 25.181h-2.042v2.045h2.042v-2.045zM16.995 23.137h-2.042v2.045h2.042v-2.045z" style="fill:var(--color2, #fff)"/><path fill="#fff" d="M16.995 25.181h-2.042v2.045h2.042v-2.045z" style="fill:var(--color2, #fff)"/><path fill="#fff" d="M14.953 29.261v-2.045h2.042a2.042 2.042 0 0 1-2.042 2.045z" style="fill:var(--color2, #fff)"/><path fill="#fff" d="M14.963 27.216h-2.042v2.045h2.042v-2.045zM12.921 29.261a2.042 2.042 0 0 1-2.042-2.045h2.042v2.045zM25.162 21.102H23.12v2.045h2.042v-2.045z" style="fill:var(--color2, #fff)"/><path fill="#fff" d="M23.12 21.102h-2.042v2.045h2.042v-2.045zM21.078 23.137h-2.042c0-1.128.911-2.045 2.042-2.045v2.045zM21.078 23.137h-2.042v2.045h2.042v-2.045z" style="fill:var(--color2, #fff)"/><path fill="#fff" d="M21.078 25.181h-2.042v2.045h2.042v-2.045zM25.162 27.216H23.12v2.045h2.042v-2.045z" style="fill:var(--color2, #fff)"/><path fill="#fff" d="M23.12 27.216h-2.042v2.045h2.042v-2.045zM21.078 29.261a2.042 2.042 0 0 1-2.042-2.045h2.042v2.045zM29.235 21.102h-2.042v2.045h2.042v-2.045z" style="fill:var(--color2, #fff)"/><path fill="#fff" d="M29.235 23.137h-2.042v2.045h2.042v-2.045zM31.277 23.137h-2.042v2.045h2.042v-2.045zM33.319 25.181h-2.042v-2.045c1.121 0 2.042.916 2.042 2.045z" style="fill:var(--color2, #fff)"/><path fill="#fff" d="M33.319 25.181h-2.042v2.045h2.042v-2.045z" style="fill:var(--color2, #fff)"/><path fill="#fff" d="M33.319 27.216h-2.042v2.045h2.042v-2.045zM33.319 21.102h-2.042v2.045h2.042v-2.045zM29.235 17.022h-2.042v2.045h2.042v-2.045z" style="fill:var(--color2, #fff)"/><path fill="#fff" d="M29.235 19.057h-2.042v2.045h2.042v-2.045z" style="fill:var(--color2, #fff)"/><path fill="#f2cb12" d="M39.434 27.216h-2.042v2.045h2.042v-2.045z" style="fill:var(--color3, #f2cb12)"/><path fill="#f2cb12" d="M37.393 27.216h-2.042v2.045h2.042v-2.045zM41.447 27.216h-2.042v2.045h2.042v-2.045z" style="fill:var(--color3, #f2cb12)"/><path fill="#fff" d="M29.235 25.181h-2.042v2.045h2.042v-2.045z" style="fill:var(--color2, #fff)"/><path fill="#fff" d="M29.235 27.216h-2.042v2.045h2.042v-2.045zM49.585 17.022h-2.042v2.045h2.042v-2.045z" style="fill:var(--color2, #fff)"/><path fill="#fff" d="M49.585 19.057h-2.042v2.045h2.042v-2.045zM51.627 19.057h-2.042v2.045h2.042v-2.045zM49.585 23.137h-2.042v2.045h2.042v-2.045z" style="fill:var(--color2, #fff)"/><path fill="#fff" d="M49.585 21.102h-2.042v2.045h2.042v-2.045zM49.585 25.181h-2.042v2.045h2.042v-2.045z" style="fill:var(--color2, #fff)"/><path fill="#fff" d="M49.585 27.216h-2.042v2.045h2.042v-2.045zM49.585 29.261v-2.045h2.042a2.042 2.042 0 0 1-2.042 2.045z" style="fill:var(--color2, #fff)"/></symbol>
<symbol id="setting-2" viewBox="0 0 32 32"><path fill="#000" d="M872 393.386c-77.226 0-108.8-54.611-70.4-121.599 22.189-38.827 8.96-88.32-29.866-110.507l-73.814-42.24c-33.706-20.053-77.226-8.107-97.28 25.6l-4.691 8.107c-38.4 66.987-101.549 66.987-140.374 0l-4.694-8.107c-19.2-33.707-62.72-45.653-96.426-25.6l-73.813 42.24c-38.827 22.187-52.053 72.107-29.867 110.933 38.827 66.561 7.253 121.172-69.973 121.172-44.373 0-81.067 36.269-81.067 81.069v75.091c0 44.374 36.267 81.069 81.067 81.069 77.227 0 108.8 54.611 69.973 121.6-22.187 38.826-8.96 88.32 29.867 110.506l73.813 42.24c33.706 20.054 77.226 8.106 97.28-25.6l4.694-8.106c38.4-66.989 101.546-66.989 140.371 0l4.694 8.106c20.054 33.706 63.574 45.654 97.28 25.6l73.814-42.24c38.826-22.186 52.051-72.106 29.866-110.506-38.826-66.989-7.254-121.6 69.974-121.6 44.371 0 81.066-36.269 81.066-81.069v-75.091c-0.426-44.374-36.694-81.069-81.494-81.069zM526.4 650.666c-76.371 0-138.666-62.291-138.666-138.666s62.294-138.666 138.666-138.666c76.374 0 138.669 62.291 138.669 138.666s-62.294 138.666-138.669 138.666z"></path></symbol>
</defs>
</svg>



