<svg width="32" height="32" viewBox="0 0 32 32" fill="none" xmlns="http://www.w3.org/2000/svg">
<path d="M16.0001 2.66669C8.64008 2.66669 2.66675 8.64002 2.66675 16C2.66675 23.36 8.64008 29.3334 16.0001 29.3334C23.3601 29.3334 29.3334 23.36 29.3334 16C29.3334 8.64002 23.3601 2.66669 16.0001 2.66669ZM11.3734 17.96C11.7601 18.3467 11.7601 18.9867 11.3734 19.3734C11.1734 19.5734 10.9201 19.6667 10.6667 19.6667C10.4134 19.6667 10.1601 19.5734 9.96008 19.3734L7.29341 16.7067C6.90675 16.32 6.90675 15.68 7.29341 15.2934L9.96008 12.6267C10.3467 12.24 10.9867 12.24 11.3734 12.6267C11.7601 13.0134 11.7601 13.6534 11.3734 14.04L9.41341 16L11.3734 17.96ZM18.2534 13.28L15.5867 19.5067C15.4267 19.88 15.0534 20.1067 14.6667 20.1067C14.5334 20.1067 14.4001 20.08 14.2801 20.0267C13.7734 19.8134 13.5334 19.2267 13.7601 18.7067L16.4267 12.48C16.6401 11.9734 17.2267 11.7334 17.7334 11.96C18.2401 12.1867 18.4667 12.7734 18.2534 13.28ZM24.7067 16.7067L22.0401 19.3734C21.8401 19.5734 21.5867 19.6667 21.3334 19.6667C21.0801 19.6667 20.8267 19.5734 20.6267 19.3734C20.2401 18.9867 20.2401 18.3467 20.6267 17.96L22.5868 16L20.6267 14.04C20.2401 13.6534 20.2401 13.0134 20.6267 12.6267C21.0134 12.24 21.6534 12.24 22.0401 12.6267L24.7067 15.2934C25.0934 15.68 25.0934 16.32 24.7067 16.7067Z" fill="#F2CB12"/>
</svg>
