<svg width="212" height="219" viewBox="0 0 212 219" fill="none" xmlns="http://www.w3.org/2000/svg">
<path d="M191.947 81.7491H219.386V109.042H191.947V81.7491Z" fill="#313234" fill-opacity="0.5"/>
<path d="M191.947 81.7491H219.386V54.5852H219.257C204.185 54.5852 191.947 66.6867 191.947 81.7491Z" fill="#313234" fill-opacity="0.5"/>
<path d="M137.196 81.7491H164.635V109.042H137.196V81.7491Z" fill="#313234" fill-opacity="0.5"/>
<path d="M164.509 81.7491H191.948V109.042H164.509V81.7491Z" fill="#313234" fill-opacity="0.5"/>
<path d="M109.758 81.7491H137.197V109.042H109.758V81.7491Z" fill="#313234" fill-opacity="0.5"/>
<path d="M109.758 109.042H137.197V136.335H109.758V109.042Z" fill="#313234" fill-opacity="0.5"/>
<path d="M137.196 136.206H164.635V163.499H137.196V136.206Z" fill="#313234" fill-opacity="0.5"/>
<path d="M164.636 163.499H164.765C179.837 163.499 192.076 151.269 192.076 136.206H164.636V163.499Z" fill="#313234" fill-opacity="0.5"/>
<path d="M109.758 27.2932H137.197V54.5859H109.758V27.2932Z" fill="#313234" fill-opacity="0.5"/>
<path d="M109.758 27.2927H137.197C137.197 12.2302 124.959 0 109.887 0H109.758V27.2927Z" fill="#313234" fill-opacity="0.5"/>
<path d="M82.318 0H109.757V27.2927H82.318V0Z" fill="#313234" fill-opacity="0.5"/>
<path d="M54.8793 0H82.3186V27.2927H54.8793V0Z" fill="#313234" fill-opacity="0.5"/>
<path d="M27.4401 27.2927H54.8794V0H54.7506C39.6783 0 27.4401 12.2302 27.4401 27.2927Z" fill="#313234" fill-opacity="0.5"/>
<path d="M27.4401 27.2932H54.8794V54.5859H27.4401V27.2932Z" fill="#313234" fill-opacity="0.5"/>
<path d="M27.4401 109.042H54.8794V136.335H27.4401V109.042Z" fill="#313234" fill-opacity="0.5"/>
<path d="M27.4401 81.7491H54.8794V109.042H27.4401V81.7491Z" fill="#313234" fill-opacity="0.5"/>
<path d="M109.758 54.5852H137.197V81.8779H109.758V54.5852Z" fill="#313234" fill-opacity="0.5"/>
<path d="M27.4401 54.5852H54.8794V81.8779H27.4401V54.5852Z" fill="#313234" fill-opacity="0.5"/>
<path d="M0.000101089 81.7491H27.4395V109.042H0.000101089V81.7491Z" fill="#FFCC01" fill-opacity="0.18"/>
<path d="M54.8793 136.206H82.3186V163.499H54.8793V136.206Z" fill="#313234" fill-opacity="0.5"/>
<path d="M191.947 163.498H219.386V190.791H191.947V163.498Z" fill="#313234" fill-opacity="0.5"/>
<path d="M137.196 190.791H164.635V218.084H137.196V190.791Z" fill="#313234" fill-opacity="0.5"/>
<path d="M164.509 190.791H191.948V218.084H164.509V190.791Z" fill="#313234" fill-opacity="0.5"/>
<path d="M109.758 190.791H137.197V218.084H109.758V190.791Z" fill="#313234" fill-opacity="0.5"/>
<path d="M82.318 163.498H109.757V190.791H82.318V163.498Z" fill="#313234" fill-opacity="0.5"/>
</svg>
