<svg width="435" height="402" viewBox="0 0 435 402" fill="none" xmlns="http://www.w3.org/2000/svg">
<path d="M403.155 101.045H453.579V151.2H403.155V101.045Z" fill="#313234" fill-opacity="0.5"/>
<path d="M352.73 150.964H403.154V201.118H352.73V150.964Z" fill="#313234" fill-opacity="0.5"/>
<path d="M352.73 150.963H403.154V101.045H402.917C375.22 101.045 352.73 123.284 352.73 150.963Z" fill="#313234" fill-opacity="0.5"/>
<path d="M252.118 150.964H302.542V201.118H252.118V150.964Z" fill="#313234" fill-opacity="0.5"/>
<path d="M302.308 150.964H352.732V201.118H302.308V150.964Z" fill="#313234" fill-opacity="0.5"/>
<path d="M201.696 150.964H252.12V201.118H201.696V150.964Z" fill="#313234" fill-opacity="0.5"/>
<path d="M201.696 201.118H252.12V251.272H201.696V201.118Z" fill="#313234" fill-opacity="0.5"/>
<path d="M252.118 251.035H302.542V301.189H252.118V251.035Z" fill="#313234" fill-opacity="0.5"/>
<path d="M302.544 301.189H302.78C330.478 301.189 352.967 278.715 352.967 251.035H302.544V301.189Z" fill="#313234" fill-opacity="0.5"/>
<path d="M201.696 50.8923H252.12V101.047H201.696V50.8923Z" fill="#313234" fill-opacity="0.5"/>
<path d="M201.696 50.8915H252.12C252.12 23.2121 229.63 0.737305 201.933 0.737305H201.696V50.8915Z" fill="#313234" fill-opacity="0.5"/>
<path d="M151.272 0.737305H201.695V50.8915H151.272V0.737305Z" fill="#313234" fill-opacity="0.5"/>
<path d="M100.849 0.737305H151.273V50.8915H100.849V0.737305Z" fill="#313234" fill-opacity="0.5"/>
<path d="M50.4254 50.8915H100.849V0.737305H100.612C72.9148 0.737305 50.4254 23.2121 50.4254 50.8915Z" fill="#313234" fill-opacity="0.5"/>
<path d="M50.4254 50.8923H100.849V101.047H50.4254V50.8923Z" fill="#313234" fill-opacity="0.5"/>
<path d="M50.4254 201.118H100.849V251.272H50.4254V201.118Z" fill="#313234" fill-opacity="0.5"/>
<path d="M50.4254 150.964H100.849V201.118H50.4254V150.964Z" fill="#313234" fill-opacity="0.5"/>
<path d="M201.696 101.045H252.12V151.2H201.696V101.045Z" fill="#313234" fill-opacity="0.5"/>
<path d="M50.4254 101.045H100.849V151.2H50.4254V101.045Z" fill="#313234" fill-opacity="0.5"/>
<path d="M3.05176e-05 150.964H50.4238V201.118H3.05176e-05V150.964Z" fill="#FFCC01" fill-opacity="0.18"/>
<path d="M403.155 251.035H453.579V301.189H403.155V251.035Z" fill="#313234" fill-opacity="0.5"/>
<path d="M100.849 251.035H151.273V301.189H100.849V251.035Z" fill="#313234" fill-opacity="0.5"/>
<path d="M352.73 301.19H403.154V351.344H352.73V301.19Z" fill="#313234" fill-opacity="0.5"/>
<path d="M252.118 351.344H302.542V401.498H252.118V351.344Z" fill="#313234" fill-opacity="0.5"/>
<path d="M302.308 351.344H352.732V401.498H302.308V351.344Z" fill="#313234" fill-opacity="0.5"/>
<path d="M201.696 351.344H252.12V401.498H201.696V351.344Z" fill="#313234" fill-opacity="0.5"/>
<path d="M151.272 301.19H201.695V351.344H151.272V301.19Z" fill="#313234" fill-opacity="0.5"/>
</svg>
